<?xml version="1.0" encoding="UTF-8" standalone="no"?>
<!-- Created with Inkscape (http://www.inkscape.org/) -->

<svg
   width="500"
   height="500"
   viewBox="0 0 132.29167 132.29166"
   version="1.1"
   id="svg1"
   inkscape:version="1.3.2 (091e20e, 2023-11-25, custom)"
   sodipodi:docname="CSB_Logo.svg"
   xmlns:inkscape="http://www.inkscape.org/namespaces/inkscape"
   xmlns:sodipodi="http://sodipodi.sourceforge.net/DTD/sodipodi-0.dtd"
   xmlns="http://www.w3.org/2000/svg"
   xmlns:svg="http://www.w3.org/2000/svg">
  <sodipodi:namedview
     id="namedview1"
     pagecolor="#505050"
     bordercolor="#eeeeee"
     borderopacity="1"
     inkscape:showpageshadow="0"
     inkscape:pageopacity="0"
     inkscape:pagecheckerboard="0"
     inkscape:deskcolor="#505050"
     inkscape:document-units="mm"
     inkscape:zoom="1.4142136"
     inkscape:cx="248.54803"
     inkscape:cy="255.6191"
     inkscape:window-width="1493"
     inkscape:window-height="1249"
     inkscape:window-x="617"
     inkscape:window-y="104"
     inkscape:window-maximized="0"
     inkscape:current-layer="layer1" />
  <defs
     id="defs1">
    <rect
       x="39.235556"
       y="127.27632"
       width="98.328134"
       height="69.140699"
       id="rect1" />
  </defs>
  <g
     inkscape:label="Layer 1"
     inkscape:groupmode="layer"
     id="layer1">
    <path
       id="text1"
       style="font-size:56px;white-space:pre;shape-inside:url(#rect1);display:none;fill:#000000"
       d="m 56.428356,139.61403 c -5.562655,0 -9.389455,1.45585 -11.480118,4.36785 -2.053329,2.87465 -3.079883,7.98936 -3.079883,15.34401 0,3.50933 0.205235,6.42141 0.6159,8.73608 0.410667,2.31465 1.157424,4.33048 2.240088,6.04782 1.082665,1.71732 2.5758,2.96794 4.479796,3.75194 1.903998,0.784 4.442896,1.17602 7.616223,1.17602 3.173327,0 6.738781,-0.4293 10.696107,-1.28796 l -0.168111,-6.32788 c -3.471994,0.52266 -6.757272,0.78401 -9.855931,0.78401 -3.061328,0 -5.114816,-0.84015 -6.160147,-2.52015 -1.007998,-1.71732 -1.51186,-4.77854 -1.51186,-9.18386 0,-4.40533 0.242516,-7.52265 0.727848,-9.35198 0.522666,-1.82933 1.306704,-3.0615 2.352035,-3.69617 1.045332,-0.67198 2.781363,-1.0079 5.208024,-1.0079 2.463996,0 5.544037,0.28017 9.240031,0.84017 l 0.223895,-6.16014 c -4.218659,-1.008 -7.933236,-1.51186 -11.143897,-1.51186 z m 28.279829,0 c -4.031992,0 -7.205047,0.93316 -9.51971,2.79982 -2.314661,1.86667 -3.472268,4.7042 -3.472268,8.51218 0,3.024 0.87743,5.39457 2.632093,7.11189 1.791996,1.68 4.853209,3.13585 9.183867,4.36785 2.725328,0.784 4.536299,1.51231 5.432299,2.18431 0.933331,0.672 1.399912,1.60516 1.399912,2.79982 0,3.28533 -1.978926,4.92797 -5.936252,4.92797 -2.650661,0 -6.477082,-0.33591 -11.479738,-1.00791 l -0.784012,5.99204 2.015813,0.392 c 4.218659,0.896 7.784113,1.34375 10.696107,1.34375 3.919992,0 7.093426,-1.02655 9.520089,-3.07988 2.426661,-2.05333 3.64,-5.07727 3.64,-9.07192 0,-3.136 -0.746757,-5.45083 -2.240088,-6.94416 -1.49333,-1.53067 -4.106791,-2.89313 -7.840118,-4.08779 -3.695992,-1.19467 -6.047728,-2.10938 -7.055726,-2.74404 -1.007998,-0.63467 -1.51224,-1.54938 -1.51224,-2.74404 0,-2.688 2.034658,-4.03201 6.103984,-4.03201 2.165328,0 5.880287,0.29863 11.144275,0.89596 l 0.615901,-6.10398 -2.016193,-0.39201 c -4.25599,-0.74667 -7.765334,-1.11985 -10.527995,-1.11985 z m 19.544135,0.67168 v 38.08036 h 15.1759 c 3.91998,0 6.96275,-0.89626 9.12808,-2.68826 2.16533,-1.792 3.248,-4.53576 3.248,-8.23174 0,-2.38934 -0.41047,-4.25605 -1.23181,-5.60003 -0.784,-1.344 -2.01616,-2.37094 -3.69616,-3.08027 1.53067,-0.97066 2.61334,-2.07178 3.24799,-3.30378 0.63467,-1.26933 0.95213,-2.96809 0.95213,-5.09607 0,-3.54667 -0.98927,-6.10401 -2.96794,-7.67201 -1.97866,-1.60533 -4.94686,-2.4082 -8.90419,-2.4082 z m 7.72817,6.60832 h 6.83183 c 2.94932,0 4.42401,1.51196 4.42401,4.53596 0,3.02398 -1.45585,4.53596 -4.36785,4.53596 h -6.88799 z m 0,15.56791 h 7.05572 c 3.28533,0 4.92797,1.53079 4.92797,4.59212 0,1.792 -0.41047,3.02378 -1.2318,3.69578 -0.784,0.672 -2.01617,1.00791 -3.69617,1.00791 h -7.05572 z"
       transform="matrix(1.361759,0,0,1.361759,-52.104314,-150.81763)"
       sodipodi:nodetypes="scsssssccscsccsccsssscccsscccsssccssscccsccssscccscsccssscccsscscc" />
    <path
       id="path1"
       style="font-size:56px;white-space:pre;shape-inside:url(#rect1);display:inline;fill:#b8b8b8;fill-opacity:1;stroke-width:1.17926"
       d="m 24.912617,34.478491 c -8.932886,0 -15.0782396,2.337898 -18.4355667,7.014193 -3.297376,4.616307 -4.945891,12.829886 -4.945891,24.640479 0,5.635516 0.329582,10.311946 0.989057,14.028995 0.659475,3.717027 1.858672,6.954179 3.597288,9.712007 1.738616,2.757782 4.1364007,4.766136 7.1939647,6.025138 3.05757,1.259001 7.134715,1.888531 12.230657,1.888531 5.093656,0 10.343865,0.08679 17.813347,-0.06086 0.930228,-0.03977 9.043657,0.06086 20.98593,0.06086 6.294988,0 11.391117,-1.648515 15.288017,-4.94589 3.896896,-3.297376 5.845364,-8.153438 5.845364,-14.568315 0,-5.035994 -1.199197,-8.753316 -3.597289,-11.151411 -2.398089,-2.458049 -6.594974,-4.645989 -12.590202,-6.564456 -5.935274,-1.918478 -9.711861,-3.387396 -11.330573,-4.406571 -1.618711,-1.019199 -2.428459,-2.488104 -2.428459,-4.406571 0,-4.316562 3.2674,-6.474874 9.802198,-6.474874 3.397695,0 16.25986,0.386969 21.18518,0.386969 v 51.05248 h 24.370521 c 6.29496,0 11.18126,-1.439274 14.6585,-4.316988 3.47723,-2.877715 5.21585,-7.28385 5.21585,-13.219104 0,-3.836964 -0.65914,-6.834661 -1.9781,-8.992915 -1.25901,-2.158286 -3.2377,-3.80741 -5.93557,-4.9465 2.45807,-1.558751 4.1967,-3.327007 5.21586,-5.305435 1.0192,-2.038376 1.52899,-4.766378 1.52899,-8.183633 0,-5.695481 -1.58865,-9.802239 -4.76612,-12.320239 -3.17747,-2.577947 -7.94402,-3.867251 -14.29896,-3.867251 H 86.515639 v 0.0031 l -9.147094,-0.41018 c -7.991572,-0.564571 -8.860638,-0.671559 -13.297106,-0.671559 -6.474846,0 -11.570365,1.498546 -15.287407,4.496153 -3.71704,2.997632 -5.57601,7.554341 -5.57601,13.669451 0,4.856143 1.409042,8.662971 4.226798,11.420764 2.877708,2.697863 7.793625,5.035761 14.748088,7.014193 4.376516,1.259002 7.284704,2.428565 8.72356,3.507707 1.498807,1.07914 2.248077,2.577685 2.248077,4.496153 0,5.275806 -3.177902,7.913667 -9.532843,7.913667 -5.477588,0 -17.886292,-0.03458 -20.380662,-0.111959 -3.074027,-0.03197 -11.659475,-0.104377 -16.63551,-0.104377 -4.916089,0 -8.197884,-1.312609 -9.876545,-4.010461 -1.618712,-2.757793 -2.427849,-7.67372 -2.427849,-14.748087 0,-7.074368 0.389449,-12.080388 1.168829,-15.018053 0.839332,-2.937654 2.098397,-4.916357 3.77706,-5.935556 1.678666,-1.079117 4.466509,-1.618566 8.363406,-1.618566 3.956851,0 8.903001,0.449931 14.838279,1.349211 l 0.359546,-9.892389 C 36.033668,35.287618 30.068514,34.478491 24.912617,34.478491 Z M 98.926065,46.16922 H 109.8971 c 4.73623,0 7.10438,2.428015 7.10438,7.284158 0,4.856111 -2.3379,7.284158 -7.01419,7.284158 H 98.926065 Z m 0,25.000023 h 11.330575 c 5.27581,0 7.91367,2.458258 7.91367,7.374349 0,2.877715 -0.65916,4.855804 -1.97811,5.934946 -1.259,1.079143 -3.2377,1.618567 -5.93556,1.618567 H 98.926065 Z"
       sodipodi:nodetypes="scsscsscssscccssccssscccscscccscscccsscscsccsccscssscccsscscc" />
  </g>
</svg>
